<?xml version="1.0" encoding="utf-8"?>
<!-- Generator: Adobe Illustrator 21.1.0, SVG Export Plug-In . SVG Version: 6.00 Build 0)  -->
<svg version="1.1" id="Layer_1" xmlns="http://www.w3.org/2000/svg" xmlns:xlink="http://www.w3.org/1999/xlink" x="0px" y="0px"
	 viewBox="0 0 96 14" style="enable-background:new 0 0 96 14;" xml:space="preserve">
<style type="text/css">
	.st3{fill:#444444;}
</style>
<path class="st3" d="M14,3.3L14,3.3l0,2.5h-1.7l-1.4,2.3H14v2.6h0v2.5h7.3v-2.5H17V8.1h3V5.8h-3V3.3h4.2V0.8H14V3.3z M11.1,2.9
	c0.1-0.1,0.2-0.3,0.3-0.4c0.1-0.1,0.1-0.3,0.1-0.5c0-0.2,0-0.4-0.2-0.5c-0.1-0.1-0.2-0.3-0.4-0.4C10.8,1,10.7,1,10.5,0.9
	c-0.2,0-0.4-0.1-0.5-0.1H2.2v2.4h5.6l-5.5,7.9c-0.1,0.1-0.2,0.2-0.2,0.4C2,11.6,2,11.8,2,11.9c0,0.4,0.2,0.8,0.5,1
	c0.3,0.2,0.6,0.3,1,0.3l8,0v-2.4H5.6L11.1,2.9z M30.9,6.9c-0.1-0.1-0.2-0.1-0.4-0.2c-0.2-0.1-0.3-0.1-0.4-0.1c0.4-0.2,0.7-0.6,0.9-1
	c0.2-0.4,0.3-0.8,0.3-1.3c0-0.5-0.1-1-0.3-1.4c-0.2-0.4-0.5-0.8-0.8-1.1c-0.4-0.3-0.8-0.5-1.2-0.7c-0.5-0.2-0.9-0.2-1.4-0.2h-2.7
	c-0.4,0-0.7,0.1-1,0.4c-0.3,0.3-0.4,0.6-0.4,1v10.9c0.3,0,0.6,0,1.1,0h4c0.5,0,1-0.1,1.5-0.3c0.5-0.2,0.9-0.4,1.2-0.7
	c0.3-0.3,0.6-0.7,0.8-1.2c0.2-0.4,0.3-1,0.3-1.5c0-0.5-0.1-1.1-0.4-1.5C31.7,7.5,31.4,7.1,30.9,6.9z M26.2,3.2h1.3
	c0.2,0,0.3,0,0.5,0.1c0.2,0.1,0.3,0.1,0.4,0.3c0.1,0.1,0.2,0.2,0.3,0.4c0.1,0.1,0.1,0.3,0.1,0.5c0,0.2,0,0.4-0.1,0.5
	c-0.1,0.2-0.2,0.3-0.3,0.4c-0.1,0.1-0.3,0.2-0.5,0.3c-0.2,0.1-0.3,0.1-0.5,0.1h-1.2V3.2z M29.6,9.9c-0.1,0.2-0.2,0.3-0.3,0.4
	c-0.1,0.1-0.3,0.2-0.5,0.3c-0.2,0.1-0.4,0.1-0.6,0.1h-2.1V7.9h2.1c0.2,0,0.4,0,0.5,0.1c0.2,0.1,0.3,0.2,0.5,0.3
	c0.1,0.1,0.2,0.3,0.3,0.5c0.1,0.2,0.1,0.4,0.1,0.6C29.7,9.6,29.6,9.8,29.6,9.9z M79.1,2.6c-0.5-0.6-1.1-1-1.8-1.4
	c-0.7-0.3-1.5-0.5-2.3-0.5c-0.9,0-1.6,0.2-2.4,0.5c-0.7,0.3-1.3,0.8-1.9,1.4c-0.5,0.6-0.9,1.2-1.2,2c-0.3,0.8-0.4,1.6-0.4,2.4
	c0,0.8,0.1,1.6,0.4,2.4c0.3,0.8,0.7,1.4,1.2,2c0.5,0.6,1.1,1,1.8,1.4c0.7,0.3,1.5,0.5,2.4,0.5c0.8,0,1.6-0.2,2.3-0.5
	c0.7-0.3,1.3-0.8,1.9-1.4c0.5-0.6,0.9-1.3,1.2-2c0.3-0.8,0.4-1.6,0.4-2.4c0-0.8-0.1-1.6-0.4-2.4C80,3.8,79.6,3.2,79.1,2.6z
	 M77.8,8.5c-0.1,0.5-0.3,0.9-0.6,1.2c-0.3,0.4-0.6,0.6-1,0.9c-0.4,0.2-0.9,0.3-1.4,0.3c-0.5,0-1-0.1-1.4-0.4c-0.4-0.2-0.7-0.5-1-0.9
	c-0.3-0.4-0.4-0.8-0.6-1.3C71.8,8,71.8,7.5,71.8,7c0-0.5,0.1-1,0.2-1.4c0.1-0.5,0.3-0.9,0.6-1.3c0.3-0.4,0.6-0.7,1-0.9
	c0.4-0.2,0.8-0.4,1.4-0.4c0.5,0,1,0.1,1.4,0.4c0.4,0.2,0.7,0.5,1,0.9c0.3,0.4,0.4,0.8,0.6,1.3C78,6.1,78,6.6,78,7.1
	C78,7.6,78,8.1,77.8,8.5z M67.6,5.6c-0.2-0.8-0.4-1.4-0.8-2C66.5,3,66,2.5,65.5,2.1c-0.5-0.4-1.1-0.7-1.8-0.9
	c-0.7-0.2-1.4-0.3-2.1-0.3l-7.1,0l1.1,2.4h1.8v8.6c0,0.4,0.1,0.7,0.4,1c0.3,0.3,0.6,0.4,1,0.4h3.1c0.9,0,1.7-0.2,2.4-0.5
	c0.7-0.3,1.3-0.8,1.8-1.3c0.5-0.6,0.9-1.2,1.2-2c0.3-0.8,0.4-1.6,0.4-2.5c0-0.2,0-0.5,0-0.7C67.7,6,67.6,5.8,67.6,5.6z M64.8,8.4
	c-0.1,0.5-0.4,0.9-0.6,1.2c-0.3,0.3-0.6,0.6-1,0.8c-0.4,0.2-0.9,0.3-1.4,0.3h-1.6V3.2h1.5c0.5,0,1,0.1,1.4,0.3
	c0.4,0.2,0.8,0.5,1.1,0.8c0.3,0.3,0.5,0.7,0.7,1.2C64.9,6,65,6.5,65,7C65,7.5,64.9,8,64.8,8.4z M93.5,7.2V6.4c0-0.4-0.4-0.5-0.5-0.5
	h-5.7l-1,2.4h4.5c-0.1,0.3-0.2,0.7-0.3,1c-0.1,0.3-0.3,0.6-0.6,0.8c-0.2,0.2-0.5,0.4-0.8,0.6c-0.3,0.1-0.7,0.2-1.1,0.2
	c-0.6,0-1.1-0.1-1.5-0.3c-0.4-0.2-0.8-0.5-1.1-0.9c-0.3-0.4-0.5-0.8-0.7-1.2c-0.1-0.5-0.2-1-0.2-1.5c0-0.5,0.1-1,0.2-1.5
	c0.1-0.5,0.4-0.9,0.6-1.3c0.3-0.4,0.6-0.7,1-0.9c0.4-0.2,0.9-0.3,1.4-0.3c0.3,0,0.6,0,0.8,0.1c0.3,0.1,0.5,0.1,0.7,0.2
	c0.2,0.1,0.5,0.2,0.7,0.4c0.2,0.1,0.5,0.3,0.7,0.4L91.9,2c-0.6-0.4-1.2-0.7-1.8-0.9c-0.6-0.2-1.3-0.3-2-0.3c-0.9,0-1.7,0.2-2.5,0.5
	c-0.8,0.3-1.4,0.8-2,1.3c-0.5,0.6-1,1.2-1.3,2c-0.3,0.8-0.5,1.6-0.5,2.5c0,0.9,0.2,1.8,0.5,2.5c0.3,0.8,0.7,1.4,1.3,2
	c0.5,0.5,1.2,1,2,1.3c0.8,0.3,1.6,0.5,2.5,0.5c0.8,0,1.6-0.1,2.2-0.4c0.7-0.3,1.2-0.7,1.7-1.2c0.5-0.5,0.8-1.1,1.1-1.8
	c0.3-0.7,0.4-1.5,0.4-2.3C93.5,7.5,93.5,7.2,93.5,7.2z M52.1,2.3c-0.2-0.5-0.4-0.9-0.8-1.1c-0.3-0.3-0.7-0.4-1.3-0.4
	c-0.5,0-0.9,0.1-1.2,0.4c-0.3,0.3-0.6,0.7-0.7,1.1l-2.6,7l-1,2.5l1.2,1.5h1.2l0.6-1.8c0.1-0.2,0.1-0.4,0.2-0.5h4.8l0.7,2.3h3
	l-3.5-9.3L52.1,2.3z M48.4,8.6l1.6-5l1.6,5H48.4z M40,7.9c0.1,0,0.1,0,0.2-0.1c0.4-0.1,0.7-0.2,1-0.4c0.3-0.2,0.6-0.4,0.8-0.7
	c0.2-0.3,0.4-0.6,0.6-0.9c0.1-0.3,0.2-0.7,0.2-1.2c0-0.6-0.1-1.1-0.3-1.6C42.3,2.7,42,2.3,41.6,2c-0.4-0.3-0.8-0.6-1.3-0.7
	c-0.5-0.2-1-0.3-1.5-0.4c-0.6-0.1-1.2-0.1-1.4-0.1c-2.5,0-2.8,0-3.1,0c-0.2,0-0.3,0.2-0.3,0.2v12.2h2.8v-5l3.8,5h3.3L39.8,8
	C39.9,7.9,40,7.9,40,7.9z M38.8,6.1h-1.9l0,0V3.2h1.9c0.2,0,0.4,0,0.6,0.1c0.2,0.1,0.3,0.2,0.5,0.3C39.9,3.8,40,4,40,4.2
	c0.1,0.2,0.1,0.4,0.1,0.6c0,0.4-0.1,0.7-0.4,1C39.5,6,39.1,6.1,38.8,6.1z"/>
</svg>
